<?xml version="1.0" standalone="no"?>
<!DOCTYPE svg PUBLIC "-//W3C//DTD SVG 20010904//EN"
 "http://www.w3.org/TR/2001/REC-SVG-20010904/DTD/svg10.dtd">
<svg version="1.0" xmlns="http://www.w3.org/2000/svg"
 width="700.000000pt" height="700.000000pt" viewBox="0 0 700.000000 700.000000"
 preserveAspectRatio="xMidYMid meet">
<metadata>
Created by potrace 1.14, written by Peter Selinger 2001-2017
</metadata>
<g transform="translate(0.000000,700.000000) scale(0.100000,-0.100000)"
fill="#000000" stroke="none">
<path d="M1375 6980 c-266 -70 -458 -283 -493 -545 -4 -33 -7 -924 -7 -1980 1
-2138 -4 -1970 70 -2120 95 -195 262 -317 491 -360 11 -2 454 -4 987 -4 l967
-1 0 -443 0 -443 -57 -17 c-159 -49 -304 -193 -352 -351 l-18 -60 -1444 -1
c-1363 -1 -1445 -2 -1470 -18 -72 -48 -59 -162 21 -189 26 -9 398 -12 1463
-12 l1429 -1 23 -67 c46 -133 151 -251 273 -309 85 -41 112 -48 207 -55 248
-18 476 137 556 381 l16 50 1414 2 c778 0 1428 2 1446 2 42 1 91 43 98 85 9
45 -15 99 -53 117 -26 13 -225 14 -1462 14 -787 0 -1435 2 -1439 5 -4 3 -13
25 -20 50 -47 166 -217 329 -380 365 l-31 7 0 444 0 444 968 1 c532 0 981 3
997 5 61 9 162 47 226 85 146 85 252 225 300 395 l23 79 0 1950 c-1 2150 4
1991 -61 2133 -86 189 -269 332 -473 371 -37 7 -732 10 -2100 10 -1959 0
-2048 -1 -2115 -19z"/>
</g>
</svg>
